Coordinates
version=1
nRows=12
nColumns=63
inDegrees=yes

Units are S.I. units (second, meters, Newtons, ...)
If the header above contains a line with 'inDegrees', this indicates whether rotational values are in degrees (yes) or radians (no).

endheader
time	pelvis_tilt	pelvis_list	pelvis_rotation	pelvis_tx	pelvis_ty	pelvis_tz	hip_flexion_r	hip_adduction_r	hip_rotation_r	knee_angle_r	knee_angle_r_beta	ankle_angle_r	subtalar_angle_r	mtp_angle_r	hip_flexion_l	hip_adduction_l	hip_rotation_l	knee_angle_l	knee_angle_l_beta	ankle_angle_l	subtalar_angle_l	mtp_angle_l	L5_S1_Flex_Ext	L5_S1_Lat_Bending	L5_S1_axial_rotation	L4_L5_Flex_Ext	L4_L5_Lat_Bending	L4_L5_axial_rotation	L3_L4_Flex_Ext	L3_L4_Lat_Bending	L3_L4_axial_rotation	L2_L3_Flex_Ext	L2_L3_Lat_Bending	L2_L3_axial_rotation	L1_L2_Flex_Ext	L1_L2_Lat_Bending	L1_L2_axial_rotation	L1_T12_Flex_Ext	L1_T12_Lat_Bending	L1_T12_axial_rotation	Abs_r3	Abs_r2	Abs_r1	Abs_t1	Abs_t2	neck_flexion	neck_bending	neck_rotation	arm_flex_r	arm_add_r	arm_rot_r	elbow_flex_r	pro_sup_r	wrist_flex_r	wrist_dev_r	arm_flex_l	arm_add_l	arm_rot_l	elbow_flex_l	pro_sup_l	wrist_flex_l	wrist_dev_l
11.300000	-6.148215	12.715675	84.341463	0.198641	0.900926	0.702787	-6.663573	-9.172927	2.231726	20.571755	0.359045	36.435534	9.608389	0.000000	-7.302680	7.598763	-1.879942	20.153988	0.351753	31.182673	-1.898105	0.000000	-1.858395	-1.176604	-9.188196	-3.451226	-1.564884	-9.762458	-3.053158	-2.860795	-9.762458	-2.123960	-2.860795	-8.039671	-1.725706	-2.399331	-7.465409	-1.061887	-1.822560	-6.891147	-13.274332	-13.309981	-51.101990	0.000000	0.000000	2.862481	-17.726245	44.852082	103.117126	52.058219	145.527848	0.032137	0.398644	-69.948162	-24.736459	-7.780776	-58.879329	-100.882145	149.838266	70.262024	-9.258249	-4.166264
11.316667	-6.071535	12.733534	84.115261	0.198165	0.900898	0.702059	-6.737210	-9.139932	2.551989	20.588280	0.359333	36.289228	9.415719	0.000000	-7.405362	7.605666	-2.073713	20.115167	0.351076	31.093391	-2.065883	0.000000	-1.858186	-1.159746	-9.330329	-3.450837	-1.542462	-9.913475	-3.052814	-2.819807	-9.913475	-2.123721	-2.819807	-8.164038	-1.725512	-2.364954	-7.580892	-1.061767	-1.796447	-6.997747	-13.272837	-13.119280	-51.892492	0.000000	0.000000	2.880529	-17.684169	44.849728	102.789761	52.502984	145.769794	0.032035	0.400259	-69.949003	-24.735385	-10.440314	-58.281092	-103.693388	149.831537	69.270394	-9.116723	-3.867746
11.333333	-5.988335	12.691565	83.888358	0.197652	0.900745	0.701243	-6.745022	-9.096119	2.862006	20.616350	0.359823	36.172044	9.237757	0.000000	-7.446886	7.606540	-2.244875	20.082252	0.350501	31.035542	-2.263294	0.000000	-1.861969	-1.132839	-9.443433	-3.457862	-1.506675	-10.033647	-3.059028	-2.754384	-10.033647	-2.128044	-2.754384	-8.263004	-1.729024	-2.310084	-7.672789	-1.063929	-1.754767	-7.082575	-13.299856	-12.814897	-52.521540	0.000000	0.000000	2.880971	-17.594911	44.845630	102.534156	52.893117	146.087445	0.032016	0.402463	-69.949528	-24.734768	-12.611439	-57.624369	-105.979211	149.825897	68.616286	-9.046130	-3.640329
11.350000	-5.915067	12.596662	83.651413	0.197193	0.900476	0.700359	-6.684772	-9.051605	3.201776	20.654985	0.360498	36.097044	9.044687	0.000000	-7.440202	7.609288	-2.440240	20.038857	0.349744	31.005868	-2.425236	0.000000	-1.867134	-1.099973	-9.529684	-3.467454	-1.462964	-10.125289	-3.067514	-2.674475	-10.125289	-2.133947	-2.674475	-8.338474	-1.733820	-2.243066	-7.742868	-1.066880	-1.703859	-7.147263	-13.336749	-12.443118	-53.001244	0.000000	0.000000	2.860369	-17.464841	44.840580	102.356510	53.241598	146.423421	0.032066	0.405546	-69.949756	-24.734708	-14.379419	-56.944938	-107.866554	149.821810	68.167195	-8.910213	-3.575239
11.366667	-5.817998	12.452305	83.412746	0.196691	0.900095	0.699498	-6.556231	-8.984432	3.479771	20.701745	0.361314	36.070419	8.915840	0.000000	-7.368406	7.581399	-2.636504	20.026730	0.349532	31.016817	-2.564046	0.000000	-1.878120	-1.054986	-9.575607	-3.487856	-1.403131	-10.174083	-3.085563	-2.565092	-10.174083	-2.146503	-2.565092	-8.378656	-1.744022	-2.151327	-7.780181	-1.073158	-1.634173	-7.181705	-13.415221	-11.934208	-53.256654	0.000000	0.000000	2.800031	-17.300103	44.833375	102.270153	53.494526	146.844040	0.032169	0.408938	-69.949737	-24.734998	-15.405726	-56.232308	-108.993943	149.819762	67.893407	-8.700508	-3.724197
11.383333	-5.757084	12.288112	83.189469	0.196341	0.899654	0.698686	-6.382614	-8.940210	3.735475	20.760879	0.362346	36.105876	8.800272	0.000000	-7.269818	7.574534	-2.827583	20.014946	0.349327	31.035138	-2.668741	0.000000	-1.891241	-1.010468	-9.600623	-3.512223	-1.343922	-10.200662	-3.107119	-2.456851	-10.200662	-2.161499	-2.456851	-8.400545	-1.756206	-2.060545	-7.800506	-1.080655	-1.565214	-7.200467	-13.508942	-11.430611	-53.395786	0.000000	0.000000	2.751016	-17.105155	44.826015	102.281050	53.719962	147.237279	0.032334	0.413934	-69.949490	-24.735615	-16.150069	-55.600904	-109.919535	149.820440	67.440939	-8.193120	-4.006128
11.400000	-5.694092	12.100827	83.000760	0.196018	0.899180	0.697987	-6.168886	-8.883163	3.918537	20.819433	0.363368	36.181116	8.716787	0.000000	-7.125640	7.548832	-2.983590	20.036426	0.349702	31.073644	-2.736035	0.000000	-1.909055	-0.959631	-9.592550	-3.545307	-1.276309	-10.192085	-3.136387	-2.333246	-10.192085	-2.181859	-2.333246	-8.393482	-1.772749	-1.956879	-7.793947	-1.090834	-1.486468	-7.194413	-13.636192	-10.855534	-53.350888	0.000000	0.000000	2.675978	-16.899990	44.816684	102.369651	53.857632	147.675319	0.032530	0.419756	-69.949088	-24.736520	-16.325739	-55.026349	-110.222587	149.823484	66.973061	-7.532917	-4.471014
11.416667	-5.619110	11.895236	82.814565	0.195691	0.898708	0.697413	-5.910856	-8.816109	4.043902	20.881929	0.364458	36.278483	8.713624	0.000000	-6.945324	7.502012	-3.143333	20.078539	0.350437	31.131925	-2.775748	0.000000	-1.930950	-0.901853	-9.547258	-3.585968	-1.199464	-10.143962	-3.172358	-2.192765	-10.143962	-2.206883	-2.192765	-8.353851	-1.793081	-1.839058	-7.757147	-1.103345	-1.396970	-7.160444	-13.792586	-10.201939	-53.098986	0.000000	0.000000	2.591028	-16.720630	44.806774	102.511370	53.899286	148.182072	0.032750	0.425165	-69.948507	-24.737791	-15.825378	-54.472457	-109.763711	149.828328	66.541820	-6.693905	-5.134782
11.433333	-5.554264	11.688493	82.697758	0.195423	0.898271	0.696938	-5.655766	-8.740509	4.083010	20.925181	0.365213	36.392953	8.708909	0.000000	-6.740016	7.444771	-3.216330	20.154721	0.351766	31.203133	-2.797513	0.000000	-1.953178	-0.844493	-9.492263	-3.627246	-1.123176	-10.085529	-3.208876	-2.053300	-10.085529	-2.232287	-2.053300	-8.305730	-1.813721	-1.722090	-7.712464	-1.116046	-1.308120	-7.119197	-13.951353	-9.553075	-52.793119	0.000000	0.000000	2.490889	-16.565148	44.796896	102.683433	53.888982	148.677896	0.032994	0.431425	-69.947811	-24.739700	-15.150924	-54.036293	-109.021540	149.835335	66.132398	-5.767976	-5.886361
11.450000	-5.479739	11.484272	82.602120	0.195152	0.897866	0.696588	-5.392055	-8.655809	4.047945	20.962433	0.365863	36.514125	8.754537	0.000000	-6.517567	7.370399	-3.247711	20.248901	0.353410	31.309094	-2.797262	0.000000	-1.976113	-0.785252	-9.415632	-3.669840	-1.044386	-10.004109	-3.246557	-1.909263	-10.004109	-2.258500	-1.909263	-8.238678	-1.835019	-1.601287	-7.650201	-1.129151	-1.216356	-7.061724	-14.115181	-8.882933	-52.366918	0.000000	0.000000	2.378667	-16.464038	44.787176	102.864003	53.789065	149.227874	0.033224	0.437241	-69.947061	-24.742258	-14.005275	-53.677703	-107.646723	149.844095	65.773320	-4.739511	-6.601658
11.466667	-5.397866	11.306850	82.524456	0.194790	0.897525	0.696385	-5.144300	-8.573893	3.943433	21.001357	0.366543	36.643566	8.840481	0.000000	-6.295506	7.291776	-3.233980	20.372855	0.355573	31.451241	-2.780656	0.000000	-2.001669	-0.727444	-9.322821	-3.717299	-0.967500	-9.905497	-3.288542	-1.768706	-9.905497	-2.287707	-1.768706	-8.157468	-1.858750	-1.483403	-7.574792	-1.143754	-1.126810	-6.992116	-14.297721	-8.228987	-51.850734	0.000000	0.000000	2.246918	-16.361876	44.778288	103.040895	53.595401	149.713968	0.033442	0.443955	-69.946307	-24.745602	-12.340945	-53.417652	-105.550648	149.851462	65.551741	-3.664588	-7.346519
11.483333	-5.308406	11.152643	82.471552	0.194441	0.897238	0.696223	-4.935542	-8.486311	3.757719	21.013792	0.366760	36.779086	8.954958	0.000000	-6.089830	7.203361	-3.151933	20.497212	0.357744	31.624278	-2.752305	0.000000	-2.022316	-0.676392	-9.247336	-3.755644	-0.899601	-9.825294	-3.322464	-1.644579	-9.825294	-2.311305	-1.644579	-8.091419	-1.877923	-1.379298	-7.513460	-1.155552	-1.047731	-6.935502	-14.445204	-7.651480	-51.430906	0.000000	0.000000	2.128468	-16.304223	44.771700	103.194943	53.383282	150.132480	0.033624	0.449163	-69.945606	-24.749764	-10.912082	-53.255237	-103.517662	149.859048	65.502271	-2.741951	-8.103015
